<svg xmlns="http://www.w3.org/2000/svg" xmlns:xlink="http://www.w3.org/1999/xlink" width="2000" zoomAndPan="magnify" viewBox="0 0 1500 1499.999933" height="2000" preserveAspectRatio="xMidYMid meet" version="1.0"><defs><g/><clipPath id="e4831db3df"><rect x="0" width="687" y="0" height="154"/></clipPath><clipPath id="b1e74fa128"><path d="M 456 536 L 1044 536 L 1044 766.816406 L 456 766.816406 Z M 456 536 " clip-rule="nonzero"/></clipPath></defs><g transform="matrix(1, 0, 0, 1, 407, 762)"><g clip-path="url(#e4831db3df)"><g fill="#e5e7e9" fill-opacity="1"><g transform="translate(0.366992, 122.186462)"><g><path d="M 96.125 -84.21875 L 59.671875 0 L 45.109375 0 L 8.1875 -84.21875 L 22.859375 -84.21875 L 44.515625 -33.6875 C 45.796875 -30.632812 47.195312 -27.382812 48.71875 -23.9375 C 50.25 -20.488281 51.65625 -17.117188 52.9375 -13.828125 C 54.132812 -17.117188 55.457031 -20.46875 56.90625 -23.875 C 58.351562 -27.289062 59.675781 -30.519531 60.875 -33.5625 L 80.96875 -84.21875 Z M 96.125 -84.21875 "/></g></g></g><g fill="#e5e7e9" fill-opacity="1"><g transform="translate(104.660317, 122.186462)"><g><path d="M 18.28125 -84.21875 L 82.046875 -84.21875 L 82.046875 -71.703125 L 31.28125 -71.703125 L 31.28125 -49.453125 L 75.4375 -49.453125 L 75.4375 -36.9375 L 31.28125 -36.9375 L 31.28125 -12.515625 L 82.046875 -12.515625 L 82.046875 0 L 18.28125 0 Z M 18.28125 -84.21875 "/></g></g></g><g fill="#e5e7e9" fill-opacity="1"><g transform="translate(202.337543, 122.186462)"><g><path d="M 81.453125 -12.515625 L 81.453125 0 L 18.28125 0 L 18.28125 -84.21875 L 31.28125 -84.21875 L 31.28125 -12.515625 Z M 81.453125 -12.515625 "/></g></g></g><g fill="#e5e7e9" fill-opacity="1"><g transform="translate(297.368384, 122.186462)"><g><path d="M 38.140625 0 L 38.140625 -71.703125 L 9.265625 -71.703125 L 9.265625 -84.21875 L 80.84375 -84.21875 L 80.84375 -71.703125 L 51.125 -71.703125 L 51.125 0 Z M 38.140625 0 "/></g></g></g><g fill="#e5e7e9" fill-opacity="1"><g transform="translate(387.467205, 122.186462)"><g><path d="M 89.75 -57.984375 C 89.75 -52.296875 88.003906 -47.1875 84.515625 -42.65625 C 81.023438 -38.125 76.59375 -34.894531 71.21875 -32.96875 L 94.078125 0.125 L 77.96875 0 L 56.546875 -31.28125 L 31.28125 -31.28125 L 31.28125 0 L 18.28125 0 L 18.28125 -84.21875 L 62.6875 -84.21875 C 67.414062 -84.21875 71.820312 -83.09375 75.90625 -80.84375 C 80 -78.601562 83.328125 -75.515625 85.890625 -71.578125 C 88.460938 -67.648438 89.75 -63.117188 89.75 -57.984375 Z M 59.546875 -71.703125 L 31.28125 -71.703125 L 31.28125 -43.796875 L 60.75 -43.796875 C 63.644531 -43.796875 66.253906 -44.457031 68.578125 -45.78125 C 70.898438 -47.101562 72.722656 -48.847656 74.046875 -51.015625 C 75.367188 -53.179688 76.03125 -55.503906 76.03125 -57.984375 C 76.03125 -60.628906 75.285156 -62.992188 73.796875 -65.078125 C 72.316406 -67.171875 70.3125 -68.796875 67.78125 -69.953125 C 65.257812 -71.117188 62.515625 -71.703125 59.546875 -71.703125 Z M 59.546875 -71.703125 "/></g></g></g><g fill="#e5e7e9" fill-opacity="1"><g transform="translate(495.369285, 122.186462)"><g><path d="M 68.703125 0 L 17.8125 0 L 17.8125 -12.515625 L 36.6875 -12.515625 L 36.6875 -71.703125 L 17.8125 -71.703125 L 17.8125 -84.21875 L 68.703125 -84.21875 L 68.703125 -71.703125 L 49.6875 -71.703125 L 49.6875 -12.515625 L 68.703125 -12.515625 Z M 68.703125 0 "/></g></g></g><g fill="#e5e7e9" fill-opacity="1"><g transform="translate(581.859348, 122.186462)"><g><path d="M 8.1875 0 L 43.078125 -43.078125 L 8.78125 -84.21875 L 25.984375 -84.21875 L 52.9375 -51.015625 L 77.96875 -84.21875 L 94.328125 -84.21875 L 60.390625 -41.875 L 95.640625 0 L 78.328125 0 L 50.890625 -33.6875 L 24.421875 0 Z M 8.1875 0 "/></g></g></g></g></g><g clip-path="url(#b1e74fa128)"><path fill="#f90000" d="M 1012.714844 686.859375 C 1012.714844 686.859375 987.558594 701.238281 959.871094 704.738281 C 932.179688 708.234375 914.429688 703.960938 950.3125 679.671875 C 986.195312 655.378906 1012.914062 652.65625 1020.125 671.316406 C 1027.339844 689.96875 1010.765625 766.921875 1010.765625 766.921875 C 1010.765625 766.921875 1030.265625 713.09375 1027.339844 676.949219 C 1024.414062 640.808594 991.851562 650.519531 970.980469 661.210938 C 955.394531 669.191406 914.949219 695.371094 920.941406 705.828125 C 927.917969 717.992188 980.425781 712.164062 1012.714844 686.859375 M 986.679688 706.96875 C 986.679688 706.96875 916.769531 726.496094 911.800781 705.902344 C 911.800781 705.902344 906.828125 708.671875 906.875 713.867188 C 906.921875 719.066406 828.0625 722.320312 828.0625 722.320312 C 828.0625 722.320312 831.433594 724.6875 888.496094 722.265625 C 929.523438 720.53125 969.714844 716.316406 986.679688 706.96875 Z M 961.183594 622.683594 C 961.183594 622.683594 934.566406 590.71875 918.769531 577.117188 C 902.972656 563.515625 881.527344 543.402344 749.941406 543.402344 C 618.359375 543.402344 596.90625 563.515625 581.117188 577.117188 C 565.320312 590.71875 538.699219 622.683594 538.699219 622.683594 C 596.46875 637.078125 903.414062 637.078125 961.183594 622.683594 Z M 549.519531 637.402344 C 549.519531 637.402344 579.894531 667.234375 594.132812 676.949219 C 606.609375 686.664062 811.742188 691.425781 811.742188 691.425781 C 811.742188 691.425781 618.601562 690.257812 596.761719 684.234375 C 583.304688 681.320312 538.453125 637.015625 538.453125 637.015625 Z M 487.164062 686.859375 C 487.164062 686.859375 512.324219 701.238281 540.015625 704.738281 C 567.703125 708.234375 585.449219 703.960938 549.570312 679.671875 C 513.6875 655.378906 486.972656 652.65625 479.757812 671.316406 C 472.542969 689.96875 489.117188 766.921875 489.117188 766.921875 C 489.117188 766.921875 469.613281 713.09375 472.542969 676.949219 C 475.464844 640.808594 508.03125 650.519531 528.898438 661.210938 C 544.484375 669.191406 584.933594 695.371094 578.941406 705.828125 C 571.964844 717.992188 519.457031 712.164062 487.164062 686.859375 Z M 513.199219 706.96875 C 513.199219 706.96875 583.109375 726.496094 588.085938 705.902344 C 588.085938 705.902344 593.058594 708.671875 593.007812 713.867188 C 592.960938 719.066406 771.257812 722.320312 771.257812 722.320312 C 771.257812 722.320312 668.449219 724.6875 611.386719 722.265625 C 570.359375 720.53125 530.164062 716.316406 513.199219 706.96875 Z M 749.941406 536.890625 C 749.941406 536.890625 799.910156 535.917969 847.492188 542.71875 C 895.074219 549.523438 905.800781 557.101562 921.402344 569.730469 C 937 582.363281 978.734375 627.636719 978.734375 627.636719 C 978.734375 627.636719 964.597656 629.191406 947.628906 630.359375 C 947.628906 630.359375 967.230469 630.941406 986.242188 628.609375 C 993.074219 627.773438 997.578125 626.445312 1000.902344 625.375 L 991.21875 626.472656 C 991.21875 626.472656 986.730469 617.148438 986.246094 608.597656 C 985.753906 600.042969 987.21875 598.199219 998.726562 599.269531 C 1010.230469 600.335938 1025.050781 601.015625 1029.828125 607.914062 C 1034.605469 614.8125 1037.582031 622.054688 1036.949219 627.636719 C 1036.3125 633.226562 1033.679688 634.34375 1031.390625 634.199219 C 1029.097656 634.050781 1024.515625 633.808594 1024.515625 633.808594 C 1024.515625 633.808594 1020.570312 630.234375 1015.332031 627.621094 C 1023.203125 634.304688 1036.082031 647 1037.726562 653.289062 C 1039.480469 659.992188 1045.429688 686.515625 1043.285156 754.722656 C 1043.285156 754.722656 1041.449219 676.289062 1031.386719 654.648438 C 1031.386719 654.648438 1014.8125 630.648438 1008.28125 630.941406 C 821.9375 639.25 677.949219 639.25 491.605469 630.941406 C 485.074219 630.648438 468.496094 654.648438 468.496094 654.648438 C 458.433594 676.289062 456.601562 754.722656 456.601562 754.722656 C 454.457031 686.515625 460.402344 659.992188 462.160156 653.289062 C 463.804688 647 476.683594 634.304688 484.554688 627.621094 C 479.3125 630.234375 475.371094 633.808594 475.371094 633.808594 C 475.371094 633.808594 470.789062 634.050781 468.496094 634.199219 C 466.203125 634.34375 463.574219 633.226562 462.9375 627.636719 C 462.304688 622.054688 465.277344 614.8125 470.054688 607.914062 C 474.835938 601.015625 489.652344 600.335938 501.15625 599.269531 C 512.664062 598.199219 514.128906 600.042969 513.640625 608.597656 C 513.15625 617.148438 508.671875 626.472656 508.671875 626.472656 L 498.984375 625.375 C 502.304688 626.445312 506.808594 627.773438 513.644531 628.609375 C 532.65625 630.941406 552.253906 630.359375 552.253906 630.359375 C 535.289062 629.191406 521.152344 627.636719 521.152344 627.636719 C 521.152344 627.636719 562.882812 582.363281 578.480469 569.730469 C 594.082031 557.101562 604.804688 549.523438 652.390625 542.71875 C 699.972656 535.917969 749.941406 536.890625 749.941406 536.890625 Z M 749.941406 536.890625 " fill-opacity="1" fill-rule="evenodd"/></g></svg>